<svg width="717" height="87" viewBox="0 0 717 87" fill="none" xmlns="http://www.w3.org/2000/svg">
<path d="M0 80.9998V37.3634H43.6364V80.9998H0Z" fill="#F0F0F0"/>
<path d="M36.3636 44.6361V0.999765H80V44.6361H36.3636Z" fill="#F0F0F0"/>
<path d="M148.72 67.8798C143.227 67.8798 138.88 66.5198 135.68 63.7998C132.533 61.0798 130.96 57.5064 130.96 53.0798C130.96 48.4398 132.56 44.8398 135.76 42.2798C138.96 39.7198 143.547 38.4398 149.52 38.4398H164.72V36.4398C164.72 30.0398 161.093 26.8398 153.84 26.8398C147.707 26.8398 144.027 29.0531 142.8 33.4798H131.92C132.827 28.5198 135.173 24.7064 138.96 22.0398C142.8 19.3731 147.787 18.0398 153.92 18.0398C160.8 18.0398 166.053 19.6398 169.68 22.8398C173.307 25.9864 175.12 30.5731 175.12 36.5998V56.0398H180.32V66.9998H169.04V59.3998H165.68C164.027 62.0664 161.787 64.1464 158.96 65.6398C156.133 67.1331 152.72 67.8798 148.72 67.8798ZM150.32 59.3998C153.04 59.3998 155.493 58.8664 157.68 57.7998C159.867 56.7331 161.573 55.3198 162.8 53.5598C164.08 51.7464 164.72 49.7464 164.72 47.5598V46.0398H150.08C144.213 46.0398 141.28 48.2264 141.28 52.5998C141.28 54.7331 142.08 56.4131 143.68 57.6398C145.28 58.8131 147.493 59.3998 150.32 59.3998Z" fill="#F0F0F0"/>
<path d="M182.409 66.9998L201.289 42.3598L183.369 18.9998H195.529L207.689 34.9198L220.009 18.9998H231.929L214.089 42.3598L232.889 66.9998H220.649L207.609 49.7998L194.489 66.9998H182.409Z" fill="#F0F0F0"/>
<path d="M238.879 86.1998V77.4798H249.999L254.399 66.9198L233.279 18.9998H244.639L259.759 54.1998H260.159L274.719 18.9998H285.599L265.119 66.9998L260.719 77.3998C259.545 80.1731 258.265 82.3331 256.879 83.8798C255.545 85.4264 253.332 86.1998 250.239 86.1998H238.879Z" fill="#F0F0F0"/>
<path d="M308.555 67.9598C301.728 67.9598 296.342 66.5464 292.395 63.7198C288.448 60.8398 286.288 56.8398 285.915 51.7198H296.555C296.928 54.3331 298.128 56.2798 300.155 57.5598C302.182 58.8398 305.115 59.4798 308.955 59.4798C315.568 59.4798 318.875 57.5064 318.875 53.5598C318.875 51.9598 318.368 50.7064 317.355 49.7998C316.342 48.8931 314.662 48.2264 312.315 47.7998L301.675 45.7998C292.448 44.0398 287.835 39.6664 287.835 32.6798C287.835 28.1998 289.595 24.6531 293.115 22.0398C296.635 19.3731 301.462 18.0398 307.595 18.0398C313.782 18.0398 318.688 19.3998 322.315 22.1198C325.995 24.8398 328.048 28.6264 328.475 33.4798H317.995C317.408 31.0264 316.235 29.2131 314.475 28.0398C312.768 26.8664 310.288 26.2798 307.035 26.2798C304.155 26.2798 301.942 26.7598 300.395 27.7198C298.848 28.6798 298.075 30.0664 298.075 31.8798C298.075 33.2131 298.555 34.3064 299.515 35.1598C300.528 35.9598 302.102 36.5731 304.235 36.9998L314.955 39.0798C319.808 39.9864 323.355 41.5598 325.595 43.7998C327.835 45.9864 328.955 48.9464 328.955 52.6798C328.955 57.4798 327.195 61.2398 323.675 63.9598C320.155 66.6264 315.115 67.9598 308.555 67.9598Z" fill="#F0F0F0"/>
<path d="M382.715 67.9598C377.808 67.9598 373.515 66.9464 369.835 64.9198C366.155 62.8398 363.275 59.9331 361.195 56.1998C359.168 52.4664 358.155 48.0664 358.155 42.9998C358.155 37.9331 359.168 33.5331 361.195 29.7998C363.222 26.0664 366.075 23.1864 369.755 21.1598C373.435 19.0798 377.755 18.0398 382.715 18.0398C388.795 18.0398 393.835 19.5598 397.835 22.5998C401.835 25.6398 404.422 29.9064 405.595 35.3998H394.635C393.835 32.7864 392.422 30.8131 390.395 29.4798C388.422 28.1464 385.862 27.4798 382.715 27.4798C378.502 27.4798 375.168 28.8398 372.715 31.5598C370.262 34.2798 369.035 38.0931 369.035 42.9998C369.035 47.9064 370.262 51.7198 372.715 54.4398C375.168 57.1598 378.502 58.5198 382.715 58.5198C389.328 58.5198 393.382 55.6131 394.875 49.7998H405.835C404.768 55.6131 402.235 60.0931 398.235 63.2398C394.235 66.3864 389.062 67.9598 382.715 67.9598Z" fill="#F0F0F0"/>
<path d="M416.346 66.9998V29.9598H410.826V18.9998H422.186V28.1998H425.546C426.826 25.0531 428.853 22.6531 431.626 20.9998C434.453 19.3464 437.68 18.5198 441.306 18.5198H445.306V27.8798H440.826C436.293 27.8798 432.853 29.1864 430.506 31.7998C428.213 34.4131 427.066 37.9064 427.066 42.2798V66.9998H416.346Z" fill="#F0F0F0"/>
<path d="M473.021 67.9598C467.955 67.9598 463.528 66.9464 459.741 64.9198C456.008 62.8398 453.128 59.9064 451.101 56.1198C449.075 52.3331 448.061 47.9064 448.061 42.8398C448.061 37.7731 449.048 33.3998 451.021 29.7198C453.048 25.9864 455.901 23.1064 459.581 21.0798C463.261 19.0531 467.608 18.0398 472.621 18.0398C477.421 18.0398 481.555 18.9998 485.021 20.9198C488.488 22.7864 491.155 25.4798 493.021 28.9998C494.941 32.4664 495.901 36.5998 495.901 41.3998V45.3998H458.461C458.888 49.7731 460.355 53.1598 462.861 55.5598C465.368 57.9064 468.728 59.0798 472.941 59.0798C476.035 59.0798 478.568 58.4931 480.541 57.3198C482.515 56.1464 483.875 54.3864 484.621 52.0398H495.661C494.488 57.0531 491.901 60.9731 487.901 63.7998C483.955 66.5731 478.995 67.9598 473.021 67.9598ZM458.781 37.7998H485.501C485.075 34.2798 483.741 31.5864 481.501 29.7198C479.261 27.7998 476.301 26.8398 472.621 26.8398C468.941 26.8398 465.901 27.7998 463.501 29.7198C461.101 31.5864 459.528 34.2798 458.781 37.7998Z" fill="#F0F0F0"/>
<path d="M519.876 67.8798C514.383 67.8798 510.036 66.5198 506.836 63.7998C503.69 61.0798 502.116 57.5064 502.116 53.0798C502.116 48.4398 503.716 44.8398 506.916 42.2798C510.116 39.7198 514.703 38.4398 520.676 38.4398H535.876V36.4398C535.876 30.0398 532.25 26.8398 524.996 26.8398C518.863 26.8398 515.183 29.0531 513.956 33.4798H503.076C503.983 28.5198 506.33 24.7064 510.116 22.0398C513.956 19.3731 518.943 18.0398 525.076 18.0398C531.956 18.0398 537.21 19.6398 540.836 22.8398C544.463 25.9864 546.276 30.5731 546.276 36.5998V56.0398H551.476V66.9998H540.196V59.3998H536.836C535.183 62.0664 532.943 64.1464 530.116 65.6398C527.29 67.1331 523.876 67.8798 519.876 67.8798ZM521.476 59.3998C524.196 59.3998 526.65 58.8664 528.836 57.7998C531.023 56.7331 532.73 55.3198 533.956 53.5598C535.236 51.7464 535.876 49.7464 535.876 47.5598V46.0398H521.236C515.37 46.0398 512.436 48.2264 512.436 52.5998C512.436 54.7331 513.236 56.4131 514.836 57.6398C516.436 58.8131 518.65 59.3998 521.476 59.3998Z" fill="#F0F0F0"/>
<path d="M573.922 66.9998C570.989 66.9998 568.696 66.2531 567.042 64.7598C565.443 63.2664 564.643 60.9998 564.643 57.9598V27.4798H556.003V18.9998H564.722V4.59976H575.443V18.9998H587.362V27.4798H575.523V58.4398H588.562V66.9998H573.922Z" fill="#F0F0F0"/>
<path d="M596.789 66.9998V18.9998H607.669V66.9998H596.789ZM602.229 13.2398C600.522 13.2398 599.055 12.6531 597.829 11.4798C596.602 10.2531 595.989 8.75976 595.989 6.99977C595.989 5.2931 596.575 3.82643 597.749 2.59976C598.975 1.3731 600.469 0.759766 602.229 0.759766C603.935 0.759766 605.402 1.3731 606.629 2.59976C607.855 3.7731 608.469 5.23976 608.469 6.99977C608.469 8.70643 607.855 10.1731 606.629 11.3998C605.455 12.6264 603.989 13.2398 602.229 13.2398Z" fill="#F0F0F0"/>
<path d="M634.96 66.9998L614.48 18.9998H625.92L640.8 54.9998H641.12L655.76 18.9998H666.88L646.4 66.9998H634.96Z" fill="#F0F0F0"/>
<path d="M693.99 67.9598C688.923 67.9598 684.497 66.9464 680.71 64.9198C676.977 62.8398 674.097 59.9064 672.07 56.1198C670.043 52.3331 669.03 47.9064 669.03 42.8398C669.03 37.7731 670.017 33.3998 671.99 29.7198C674.017 25.9864 676.87 23.1064 680.55 21.0798C684.23 19.0531 688.577 18.0398 693.59 18.0398C698.39 18.0398 702.523 18.9998 705.99 20.9198C709.457 22.7864 712.123 25.4798 713.99 28.9998C715.91 32.4664 716.87 36.5998 716.87 41.3998V45.3998H679.43C679.857 49.7731 681.323 53.1598 683.83 55.5598C686.337 57.9064 689.697 59.0798 693.91 59.0798C697.003 59.0798 699.537 58.4931 701.51 57.3198C703.483 56.1464 704.843 54.3864 705.59 52.0398H716.63C715.457 57.0531 712.87 60.9731 708.87 63.7998C704.923 66.5731 699.963 67.9598 693.99 67.9598ZM679.75 37.7998H706.47C706.043 34.2798 704.71 31.5864 702.47 29.7198C700.23 27.7998 697.27 26.8398 693.59 26.8398C689.91 26.8398 686.87 27.7998 684.47 29.7198C682.07 31.5864 680.497 34.2798 679.75 37.7998Z" fill="#F0F0F0"/>
</svg>
